<svg width="40" height="36" viewBox="0 0 40 36" fill="none" xmlns="http://www.w3.org/2000/svg">
<path id="Mask" fill-rule="evenodd" clip-rule="evenodd" d="M3.09478 24.7334H0.83778C0.0929007 24.7334 -0.280131 23.832 0.246531 23.3049L4.91668 18.6308C5.24323 18.304 5.77261 18.304 6.0991 18.6308L10.7692 23.3049C11.296 23.832 10.9229 24.7334 10.1781 24.7334H7.72932C9.14349 28.5224 13.6642 30.7734 17.7705 31.2893V18.039H14.1474C13.6857 18.039 13.3114 17.6644 13.3114 17.2023V14.4129C13.3114 13.9508 13.6857 13.5762 14.1474 13.5762H17.7705V13.1947C15.1728 12.2756 13.3114 9.7965 13.3114 6.88181C13.3114 3.15285 16.3577 0.135938 20.0955 0.188168C23.7349 0.238934 26.689 3.23981 26.6886 6.88265C26.6882 9.79699 24.827 12.2758 22.2295 13.1947V13.5762H25.8525C26.3142 13.5762 26.6886 13.9508 26.6886 14.4129V17.2023C26.6886 17.6644 26.3142 18.039 25.8525 18.039H22.2295V31.2893C26.351 30.7714 30.857 28.5211 32.2706 24.7334H29.8219C29.077 24.7334 28.704 23.8321 29.2307 23.3049L33.9008 18.6308C34.2274 18.304 34.7568 18.304 35.0833 18.6308L39.7534 23.3049C40.2802 23.832 39.9071 24.7334 39.1622 24.7334H36.9052C35.3876 31.8894 27.4014 35.8906 20 35.8906C12.6107 35.8906 4.61415 31.8974 3.09478 24.7334ZM22.2295 6.88151C22.2295 5.65108 21.2293 4.65006 20 4.65006C18.7706 4.65006 17.7704 5.65108 17.7704 6.88151C17.7704 8.11194 18.7706 9.11296 20 9.11296C21.2293 9.11296 22.2295 8.11194 22.2295 6.88151Z" fill="black"/>
</svg>
