<svg width="36" height="40" viewBox="0 0 36 40" fill="none" xmlns="http://www.w3.org/2000/svg">
<path id="Mask" fill-rule="evenodd" clip-rule="evenodd" d="M25.4993 16.7969L34.6555 31.5234C36.9446 35.1953 34.3118 40 29.9602 40H6.03833C1.69458 40 -0.946045 35.2031 1.34302 31.5234L10.4993 16.7969V5H9.87427C8.83521 5 7.99927 4.16406 7.99927 3.125V1.875C7.99927 0.835938 8.83521 0 9.87427 0H26.1243C27.1633 0 27.9993 0.835938 27.9993 1.875V3.125C27.9993 4.16406 27.1633 5 26.1243 5H25.4993V16.7969ZM15.0383 18.9375L11.2727 25H24.7102L20.9446 18.9375C20.6633 18.5312 20.4915 18.0391 20.4915 17.5V5H15.4915V17.5C15.4915 18.0312 15.3274 18.5312 15.0383 18.9375Z" fill="black"/>
</svg>
