<svg width="40" height="40" viewBox="0 0 40 40" fill="none" xmlns="http://www.w3.org/2000/svg">
<path id="Mask" d="M0.84938 24.7337C2.03211 23.4769 4.00985 23.4169 5.2668 24.5998L10 29.0546V22.8511L6.95274 9.44303C6.57024 7.76006 7.62446 6.08568 9.30743 5.70318C10.9909 5.32084 12.6648 6.37498 13.0473 8.05795L15.7615 20.0005H16.5297L12.8138 3.82592C12.4273 2.14381 13.4777 0.467012 15.1597 0.0806058C16.8419 -0.306113 18.5186 0.744512 18.905 2.42654L22.9425 20.0005H24.1226L27.9058 4.86748C28.3243 3.19311 30.021 2.17514 31.6954 2.59373C33.3698 3.01232 34.3878 4.70897 33.9691 6.38334L30.5649 20.0005H31.4306L33.8343 9.90162C34.2341 8.22264 35.9191 7.18537 37.5981 7.58545C39.2771 7.98522 40.3141 9.67029 39.9143 11.3493L37.079 23.2608C36.9435 23.8299 36.875 24.4129 36.875 24.9979V28.2871C36.875 29.0089 36.7708 29.7269 36.5656 30.4189L34.5208 37.3163C34.0488 38.9084 32.586 40.0005 30.9255 40.0005H13.9978C13.0426 40.0005 12.1233 39.6359 11.4277 38.9812L0.983209 29.1511C-0.273588 27.9682 -0.333432 25.9904 0.84938 24.7337Z" fill="black"/>
</svg>
