<svg width="30" height="36" viewBox="0 0 30 36" fill="none" xmlns="http://www.w3.org/2000/svg">
<path id="Mask" d="M29.062 18H25.3105C24.8156 18 24.375 18.3838 24.375 18.8786C24.375 26.75 17.9827 30.5 11.25 30.5V18.061L21.7659 15.7241C22.1948 15.6288 22.5 15.2484 22.5 14.809V11.6077C22.5 11.008 21.9446 10.5624 21.3591 10.6926L11.25 12.939V10.5609L21.7659 8.22406C22.1948 8.12875 22.5 7.74831 22.5 7.30891V4.10773C22.5 3.50797 21.9446 3.06242 21.3591 3.19258L11.25 5.43898V1.4375C11.25 0.919766 10.8302 0.5 10.3125 0.5H5.9375C5.41976 0.5 5 0.919766 5 1.4375V6.82789L0.734141 7.77586C0.305201 7.87117 1.03076e-05 8.25161 0 8.69102V11.8923C0 12.492 0.555391 12.9376 1.14086 12.8074L5 11.9498V14.3279L0.734141 15.2759C0.305201 15.3712 1.03076e-05 15.7516 0 16.191V19.3923C0 19.992 0.555391 20.4376 1.14086 20.3074L5 19.4498V34.5625C5 35.0802 5.41976 35.5 5.9375 35.5H12.1549C22.6308 35.5 29.5967 29.4192 29.9993 18.9694C30.0197 18.4395 29.5922 18 29.062 18Z" fill="black"/>
</svg>
