<svg width="38" height="40" viewBox="0 0 38 40" fill="none" xmlns="http://www.w3.org/2000/svg">
<path id="Mask" fill-rule="evenodd" clip-rule="evenodd" d="M36.3316 32.5957C32.5923 37.2028 26.9497 40 20.7969 40C9.74813 40 0.796875 31.0438 0.796875 20C0.796875 8.95117 9.75313 0 20.7969 0C22.0216 0.000199712 23.2437 0.112043 24.448 0.334141C27.8872 0.969375 28.6486 5.55828 25.6216 7.28094C22.3893 9.12031 20.3534 12.5475 20.3534 16.3306C20.3534 22.8559 26.2849 27.774 32.7184 26.5487C36.1317 25.8987 38.5402 29.8745 36.3316 32.5957ZM23.7669 4.02172C22.8038 3.84383 21.8113 3.75 20.7969 3.75C11.8223 3.75 4.54688 11.0254 4.54688 20C4.54688 28.9746 11.8223 36.25 20.7969 36.25C25.893 36.25 30.4405 33.9034 33.4199 30.2325C24.7003 31.8931 16.6034 25.225 16.6034 16.3306C16.6034 11.0562 19.4888 6.45633 23.7669 4.02172Z" fill="black"/>
</svg>
