<svg width="36" height="40" viewBox="0 0 36 40" fill="none" xmlns="http://www.w3.org/2000/svg">
<path id="Mask" d="M35.2513 23.5655C35.4811 23.1639 35.5551 22.6918 35.4592 22.2391C35.2463 21.2262 34.2608 20.5794 33.2581 20.7945L26.4294 22.7512L21.125 20L26.4294 17.2488L33.2581 19.2055C34.2608 19.4206 35.2463 18.7738 35.4592 17.7609C35.672 16.7479 35.0317 15.7524 34.0291 15.5373L30.3199 14.9798L34.4666 12.5613C35.3543 12.0436 35.6585 10.8968 35.146 10C34.6334 9.1032 33.4982 8.79594 32.6105 9.31367L28.4638 11.7321L29.8405 8.20836C30.1574 7.22352 29.6242 6.1657 28.6493 5.84547C27.6745 5.52523 26.6272 6.06398 26.3103 7.04875L24.5734 14.0011L19.8562 16.7523V11.25L24.948 6.2543C25.6338 5.48461 25.572 4.29906 24.81 3.60633C24.0481 2.91359 22.8745 2.97602 22.1888 3.7457L19.8562 6.71187V1.875C19.8562 0.839453 19.0252 0 18.0001 0C16.975 0 16.144 0.839453 16.144 1.875V6.71187L13.8114 3.7457C13.1256 2.97602 11.9521 2.91352 11.1902 3.60633C10.4282 4.29906 10.3665 5.48461 11.0522 6.2543L16.1439 11.25V16.7524L11.4267 14.0013L9.68986 7.04891C9.37291 6.06414 8.32564 5.52539 7.3508 5.84562C6.37595 6.16586 5.84267 7.22375 6.15963 8.20852L7.53619 11.7323L3.38955 9.31383C2.50181 8.79609 1.36666 9.10336 0.854078 10.0002C0.3415 10.897 0.645719 12.0437 1.53345 12.5615L5.68009 14.9799L1.97095 15.5375C0.968219 15.7527 0.327906 16.748 0.540875 17.761C0.753766 18.7739 1.73923 19.4208 2.74197 19.2057L9.57064 17.249L14.875 20L9.57064 22.7512L2.74205 20.7945C1.73931 20.5795 0.753844 21.2262 0.540953 22.2392C0.328063 23.2523 0.968297 24.2477 1.97103 24.4627L5.68017 25.0203L1.53353 27.4388C0.645797 27.9565 0.341656 29.1032 0.854156 30C1.36666 30.8968 2.50189 31.2041 3.38963 30.6863L7.53627 28.2679L6.1597 31.7916C5.99635 32.2973 6.0537 32.8483 6.31767 33.3095C6.53884 33.6964 6.89705 34.0055 7.3508 34.1545C8.32564 34.4747 9.37291 33.9359 9.68986 32.9512L11.4267 25.9988L16.1439 23.2477V28.75L11.0521 33.7457C10.3663 34.5154 10.4281 35.7009 11.1901 36.3937C11.9521 37.0865 13.1256 37.024 13.8113 36.2543L16.1439 33.2881V38.125C16.1439 39.1605 16.9749 40 18 40C19.0251 40 19.8561 39.1605 19.8561 38.125V33.2881L22.1887 36.2543C22.5387 36.6493 23.0412 36.8753 23.5689 36.875C24.0282 36.8752 24.4709 36.7035 24.8099 36.3937C25.5719 35.7009 25.6337 34.5154 24.9479 33.7457L19.8561 28.75V23.2476L24.5733 25.9987L26.3102 32.9511C26.6271 33.9359 27.6744 34.4746 28.6492 34.1544C29.6242 33.8341 30.1574 32.7762 29.8404 31.7915L28.4638 28.2677L32.6104 30.6862C33.4981 31.2039 34.6333 30.8966 35.1459 29.9998C35.6585 29.103 35.3542 27.9563 34.4665 27.4385L30.3199 25.0201L34.029 24.4625C34.5649 24.3477 34.9973 24.0099 35.2513 23.5655Z" fill="black"/>
</svg>
